<svg width="86" height="91" viewBox="0 0 86 91" fill="none" xmlns="http://www.w3.org/2000/svg">
<g opacity="0.3">
<mask id="mask0_1_11" style="mask-type:alpha" maskUnits="userSpaceOnUse" x="0" y="13" width="8" height="8">
<path d="M3.90962 20.9773C6.06885 20.9773 7.81925 19.1915 7.81925 16.9886C7.81925 14.7858 6.06885 13 3.90962 13C1.7504 13 0 14.7858 0 16.9886C0 19.1915 1.7504 20.9773 3.90962 20.9773Z" fill="url(#paint0_linear_1_11)"/>
</mask>
<g mask="url(#mask0_1_11)">
<path d="M3.90962 20.9773C6.06885 20.9773 7.81925 19.1915 7.81925 16.9886C7.81925 14.7858 6.06885 13 3.90962 13C1.7504 13 0 14.7858 0 16.9886C0 19.1915 1.7504 20.9773 3.90962 20.9773Z" fill="url(#paint1_linear_1_11)"/>
</g>
<mask id="mask1_1_11" style="mask-type:alpha" maskUnits="userSpaceOnUse" x="22" y="13" width="9" height="8">
<path d="M26.5525 20.9773C28.7117 20.9773 30.4621 19.1915 30.4621 16.9886C30.4621 14.7858 28.7117 13 26.5525 13C24.3933 13 22.6429 14.7858 22.6429 16.9886C22.6429 19.1915 24.3933 20.9773 26.5525 20.9773Z" fill="url(#paint2_linear_1_11)"/>
</mask>
<g mask="url(#mask1_1_11)">
<path d="M26.5529 20.9773C28.7121 20.9773 30.4625 19.1915 30.4625 16.9886C30.4625 14.7858 28.7121 13 26.5529 13C24.3937 13 22.6432 14.7858 22.6432 16.9886C22.6432 19.1915 24.3937 20.9773 26.5529 20.9773Z" fill="url(#paint3_linear_1_11)"/>
</g>
<mask id="mask2_1_11" style="mask-type:alpha" maskUnits="userSpaceOnUse" x="45" y="13" width="9" height="8">
<path d="M49.1953 20.9773C51.3546 20.9773 53.105 19.1915 53.105 16.9886C53.105 14.7858 51.3546 13 49.1953 13C47.0361 13 45.2857 14.7858 45.2857 16.9886C45.2857 19.1915 47.0361 20.9773 49.1953 20.9773Z" fill="url(#paint4_linear_1_11)"/>
</mask>
<g mask="url(#mask2_1_11)">
<path d="M49.196 20.9773C51.3552 20.9773 53.1056 19.1915 53.1056 16.9886C53.1056 14.7858 51.3552 13 49.196 13C47.0368 13 45.2864 14.7858 45.2864 16.9886C45.2864 19.1915 47.0368 20.9773 49.196 20.9773Z" fill="url(#paint5_linear_1_11)"/>
</g>
<mask id="mask3_1_11" style="mask-type:alpha" maskUnits="userSpaceOnUse" x="67" y="13" width="9" height="8">
<path d="M71.8382 20.9773C73.9974 20.9773 75.7478 19.1915 75.7478 16.9886C75.7478 14.7858 73.9974 13 71.8382 13C69.6789 13 67.9285 14.7858 67.9285 16.9886C67.9285 19.1915 69.6789 20.9773 71.8382 20.9773Z" fill="url(#paint6_linear_1_11)"/>
</mask>
<g mask="url(#mask3_1_11)">
<path d="M71.8388 20.9773C73.998 20.9773 75.7484 19.1915 75.7484 16.9886C75.7484 14.7858 73.998 13 71.8388 13C69.6795 13 67.9291 14.7858 67.9291 16.9886C67.9291 19.1915 69.6795 20.9773 71.8388 20.9773Z" fill="url(#paint7_linear_1_11)"/>
</g>
<mask id="mask4_1_11" style="mask-type:alpha" maskUnits="userSpaceOnUse" x="0" y="33" width="8" height="9">
<path d="M3.90962 41.0037C6.06885 41.0037 7.81925 39.2179 7.81925 37.015C7.81925 34.8122 6.06885 33.0264 3.90962 33.0264C1.7504 33.0264 0 34.8122 0 37.015C0 39.2179 1.7504 41.0037 3.90962 41.0037Z" fill="url(#paint8_linear_1_11)"/>
</mask>
<g mask="url(#mask4_1_11)">
<path d="M3.90962 41.0037C6.06885 41.0037 7.81925 39.218 7.81925 37.0151C7.81925 34.8122 6.06885 33.0265 3.90962 33.0265C1.7504 33.0265 0 34.8122 0 37.0151C0 39.218 1.7504 41.0037 3.90962 41.0037Z" fill="url(#paint9_linear_1_11)"/>
</g>
<mask id="mask5_1_11" style="mask-type:alpha" maskUnits="userSpaceOnUse" x="22" y="33" width="9" height="9">
<path d="M26.5525 41.0038C28.7117 41.0038 30.4621 39.218 30.4621 37.0151C30.4621 34.8123 28.7117 33.0265 26.5525 33.0265C24.3933 33.0265 22.6429 34.8123 22.6429 37.0151C22.6429 39.218 24.3933 41.0038 26.5525 41.0038Z" fill="url(#paint10_linear_1_11)"/>
</mask>
<g mask="url(#mask5_1_11)">
<path d="M26.5529 41.0037C28.7121 41.0037 30.4625 39.2179 30.4625 37.0151C30.4625 34.8122 28.7121 33.0264 26.5529 33.0264C24.3937 33.0264 22.6432 34.8122 22.6432 37.0151C22.6432 39.2179 24.3937 41.0037 26.5529 41.0037Z" fill="url(#paint11_linear_1_11)"/>
</g>
<mask id="mask6_1_11" style="mask-type:alpha" maskUnits="userSpaceOnUse" x="45" y="33" width="9" height="9">
<path d="M49.1953 41.0038C51.3546 41.0038 53.105 39.218 53.105 37.0151C53.105 34.8123 51.3546 33.0265 49.1953 33.0265C47.0361 33.0265 45.2857 34.8123 45.2857 37.0151C45.2857 39.218 47.0361 41.0038 49.1953 41.0038Z" fill="url(#paint12_linear_1_11)"/>
</mask>
<g mask="url(#mask6_1_11)">
<path d="M49.196 41.0037C51.3552 41.0037 53.1056 39.2179 53.1056 37.0151C53.1056 34.8122 51.3552 33.0264 49.196 33.0264C47.0368 33.0264 45.2864 34.8122 45.2864 37.0151C45.2864 39.2179 47.0368 41.0037 49.196 41.0037Z" fill="url(#paint13_linear_1_11)"/>
</g>
<mask id="mask7_1_11" style="mask-type:alpha" maskUnits="userSpaceOnUse" x="67" y="33" width="9" height="9">
<path d="M71.8382 41.0038C73.9974 41.0038 75.7478 39.218 75.7478 37.0151C75.7478 34.8123 73.9974 33.0265 71.8382 33.0265C69.6789 33.0265 67.9285 34.8123 67.9285 37.0151C67.9285 39.218 69.6789 41.0038 71.8382 41.0038Z" fill="url(#paint14_linear_1_11)"/>
</mask>
<g mask="url(#mask7_1_11)">
<path d="M71.8388 41.0037C73.998 41.0037 75.7484 39.2179 75.7484 37.0151C75.7484 34.8122 73.998 33.0264 71.8388 33.0264C69.6795 33.0264 67.9291 34.8122 67.9291 37.0151C67.9291 39.2179 69.6795 41.0037 71.8388 41.0037Z" fill="url(#paint15_linear_1_11)"/>
</g>
<mask id="mask8_1_11" style="mask-type:alpha" maskUnits="userSpaceOnUse" x="0" y="53" width="8" height="8">
<path d="M3.90962 60.9887C6.06885 60.9887 7.81925 59.2029 7.81925 57C7.81925 54.7971 6.06885 53.0113 3.90962 53.0113C1.7504 53.0113 0 54.7971 0 57C0 59.2029 1.7504 60.9887 3.90962 60.9887Z" fill="url(#paint16_linear_1_11)"/>
</mask>
<g mask="url(#mask8_1_11)">
<path d="M3.90962 60.9888C6.06885 60.9888 7.81925 59.203 7.81925 57.0001C7.81925 54.7972 6.06885 53.0114 3.90962 53.0114C1.7504 53.0114 0 54.7972 0 57.0001C0 59.203 1.7504 60.9888 3.90962 60.9888Z" fill="url(#paint17_linear_1_11)"/>
</g>
<mask id="mask9_1_11" style="mask-type:alpha" maskUnits="userSpaceOnUse" x="22" y="53" width="9" height="8">
<path d="M26.5525 60.9889C28.7117 60.9889 30.4621 59.2032 30.4621 57.0003C30.4621 54.7974 28.7117 53.0116 26.5525 53.0116C24.3933 53.0116 22.6429 54.7974 22.6429 57.0003C22.6429 59.2032 24.3933 60.9889 26.5525 60.9889Z" fill="url(#paint18_linear_1_11)"/>
</mask>
<g mask="url(#mask9_1_11)">
<path d="M26.5529 60.9888C28.7121 60.9888 30.4625 59.203 30.4625 57.0001C30.4625 54.7972 28.7121 53.0114 26.5529 53.0114C24.3937 53.0114 22.6432 54.7972 22.6432 57.0001C22.6432 59.203 24.3937 60.9888 26.5529 60.9888Z" fill="url(#paint19_linear_1_11)"/>
</g>
<mask id="mask10_1_11" style="mask-type:alpha" maskUnits="userSpaceOnUse" x="45" y="53" width="9" height="8">
<path d="M49.1953 60.9889C51.3546 60.9889 53.105 59.2032 53.105 57.0003C53.105 54.7974 51.3546 53.0116 49.1953 53.0116C47.0361 53.0116 45.2857 54.7974 45.2857 57.0003C45.2857 59.2032 47.0361 60.9889 49.1953 60.9889Z" fill="url(#paint20_linear_1_11)"/>
</mask>
<g mask="url(#mask10_1_11)">
<path d="M49.196 60.9888C51.3552 60.9888 53.1056 59.203 53.1056 57.0001C53.1056 54.7972 51.3552 53.0114 49.196 53.0114C47.0368 53.0114 45.2864 54.7972 45.2864 57.0001C45.2864 59.203 47.0368 60.9888 49.196 60.9888Z" fill="url(#paint21_linear_1_11)"/>
</g>
<mask id="mask11_1_11" style="mask-type:alpha" maskUnits="userSpaceOnUse" x="67" y="53" width="9" height="8">
<path d="M71.8382 60.9889C73.9974 60.9889 75.7478 59.2032 75.7478 57.0003C75.7478 54.7974 73.9974 53.0116 71.8382 53.0116C69.6789 53.0116 67.9285 54.7974 67.9285 57.0003C67.9285 59.2032 69.6789 60.9889 71.8382 60.9889Z" fill="url(#paint22_linear_1_11)"/>
</mask>
<g mask="url(#mask11_1_11)">
<path d="M71.8388 60.9888C73.998 60.9888 75.7484 59.203 75.7484 57.0001C75.7484 54.7972 73.998 53.0114 71.8388 53.0114C69.6795 53.0114 67.9291 54.7972 67.9291 57.0001C67.9291 59.203 69.6795 60.9888 71.8388 60.9888Z" fill="url(#paint23_linear_1_11)"/>
</g>
<mask id="mask12_1_11" style="mask-type:alpha" maskUnits="userSpaceOnUse" x="0" y="73" width="8" height="9">
<path d="M3.90962 81.0155C6.06885 81.0155 7.81925 79.2296 7.81925 77.0268C7.81925 74.8239 6.06885 73.0381 3.90962 73.0381C1.7504 73.0381 0 74.8239 0 77.0268C0 79.2296 1.7504 81.0155 3.90962 81.0155Z" fill="url(#paint24_linear_1_11)"/>
</mask>
<g mask="url(#mask12_1_11)">
<path d="M3.90962 81.0152C6.06885 81.0152 7.81925 79.2294 7.81925 77.0265C7.81925 74.8236 6.06885 73.0379 3.90962 73.0379C1.7504 73.0379 0 74.8236 0 77.0265C0 79.2294 1.7504 81.0152 3.90962 81.0152Z" fill="url(#paint25_linear_1_11)"/>
</g>
<mask id="mask13_1_11" style="mask-type:alpha" maskUnits="userSpaceOnUse" x="22" y="73" width="9" height="9">
<path d="M26.5525 81.0155C28.7117 81.0155 30.4621 79.2296 30.4621 77.0268C30.4621 74.8239 28.7117 73.0381 26.5525 73.0381C24.3933 73.0381 22.6429 74.8239 22.6429 77.0268C22.6429 79.2296 24.3933 81.0155 26.5525 81.0155Z" fill="url(#paint26_linear_1_11)"/>
</mask>
<g mask="url(#mask13_1_11)">
<path d="M26.5529 81.0152C28.7121 81.0152 30.4625 79.2294 30.4625 77.0265C30.4625 74.8236 28.7121 73.0379 26.5529 73.0379C24.3937 73.0379 22.6432 74.8236 22.6432 77.0265C22.6432 79.2294 24.3937 81.0152 26.5529 81.0152Z" fill="url(#paint27_linear_1_11)"/>
</g>
<mask id="mask14_1_11" style="mask-type:alpha" maskUnits="userSpaceOnUse" x="45" y="73" width="9" height="9">
<path d="M49.1953 81.0155C51.3546 81.0155 53.105 79.2296 53.105 77.0268C53.105 74.8239 51.3546 73.0381 49.1953 73.0381C47.0361 73.0381 45.2857 74.8239 45.2857 77.0268C45.2857 79.2296 47.0361 81.0155 49.1953 81.0155Z" fill="url(#paint28_linear_1_11)"/>
</mask>
<g mask="url(#mask14_1_11)">
<path d="M49.196 81.0152C51.3552 81.0152 53.1056 79.2294 53.1056 77.0265C53.1056 74.8236 51.3552 73.0379 49.196 73.0379C47.0368 73.0379 45.2864 74.8236 45.2864 77.0265C45.2864 79.2294 47.0368 81.0152 49.196 81.0152Z" fill="url(#paint29_linear_1_11)"/>
</g>
<mask id="mask15_1_11" style="mask-type:alpha" maskUnits="userSpaceOnUse" x="67" y="73" width="9" height="9">
<path d="M71.8382 81.0155C73.9974 81.0155 75.7478 79.2296 75.7478 77.0268C75.7478 74.8239 73.9974 73.0381 71.8382 73.0381C69.6789 73.0381 67.9285 74.8239 67.9285 77.0268C67.9285 79.2296 69.6789 81.0155 71.8382 81.0155Z" fill="url(#paint30_linear_1_11)"/>
</mask>
<g mask="url(#mask15_1_11)">
<path d="M71.8388 81.0152C73.998 81.0152 75.7484 79.2294 75.7484 77.0265C75.7484 74.8236 73.998 73.0379 71.8388 73.0379C69.6795 73.0379 67.9291 74.8236 67.9291 77.0265C67.9291 79.2294 69.6795 81.0152 71.8388 81.0152Z" fill="url(#paint31_linear_1_11)"/>
</g>
</g>
<defs>
<linearGradient id="paint0_linear_1_11" x1="38.076" y1="105.471" x2="-17.486" y2="-32.7764" gradientUnits="userSpaceOnUse">
<stop stop-color="#FFA434"/>
<stop offset="1" stop-color="#FFA434"/>
</linearGradient>
<linearGradient id="paint1_linear_1_11" x1="38.076" y1="105.471" x2="-17.486" y2="-32.7764" gradientUnits="userSpaceOnUse">
<stop stop-color="#FFA434"/>
<stop offset="1" stop-color="#FFA434"/>
</linearGradient>
<linearGradient id="paint2_linear_1_11" x1="60.7189" y1="105.471" x2="5.15693" y2="-32.7764" gradientUnits="userSpaceOnUse">
<stop stop-color="#FFA434"/>
<stop offset="1" stop-color="#FFA434"/>
</linearGradient>
<linearGradient id="paint3_linear_1_11" x1="60.7193" y1="105.471" x2="5.1573" y2="-32.7764" gradientUnits="userSpaceOnUse">
<stop stop-color="#FFA434"/>
<stop offset="1" stop-color="#FFA434"/>
</linearGradient>
<linearGradient id="paint4_linear_1_11" x1="83.3617" y1="105.471" x2="27.7998" y2="-32.7764" gradientUnits="userSpaceOnUse">
<stop stop-color="#FFA434"/>
<stop offset="1" stop-color="#FFA434"/>
</linearGradient>
<linearGradient id="paint5_linear_1_11" x1="83.3624" y1="105.471" x2="27.8004" y2="-32.7764" gradientUnits="userSpaceOnUse">
<stop stop-color="#FFA434"/>
<stop offset="1" stop-color="#FFA434"/>
</linearGradient>
<linearGradient id="paint6_linear_1_11" x1="106.005" y1="105.471" x2="50.4426" y2="-32.7764" gradientUnits="userSpaceOnUse">
<stop stop-color="#FFA434"/>
<stop offset="1" stop-color="#FFA434"/>
</linearGradient>
<linearGradient id="paint7_linear_1_11" x1="106.005" y1="105.471" x2="50.4432" y2="-32.7764" gradientUnits="userSpaceOnUse">
<stop stop-color="#FFA434"/>
<stop offset="1" stop-color="#FFA434"/>
</linearGradient>
<linearGradient id="paint8_linear_1_11" x1="38.076" y1="125.496" x2="-17.4851" y2="-12.7499" gradientUnits="userSpaceOnUse">
<stop stop-color="#FFA434"/>
<stop offset="1" stop-color="#FFA434"/>
</linearGradient>
<linearGradient id="paint9_linear_1_11" x1="38.076" y1="125.496" x2="-17.4851" y2="-12.7499" gradientUnits="userSpaceOnUse">
<stop stop-color="#FFA434"/>
<stop offset="1" stop-color="#FFA434"/>
</linearGradient>
<linearGradient id="paint10_linear_1_11" x1="60.7189" y1="125.496" x2="5.15788" y2="-12.7499" gradientUnits="userSpaceOnUse">
<stop stop-color="#FFA434"/>
<stop offset="1" stop-color="#FFA434"/>
</linearGradient>
<linearGradient id="paint11_linear_1_11" x1="60.7193" y1="125.496" x2="5.15824" y2="-12.7499" gradientUnits="userSpaceOnUse">
<stop stop-color="#FFA434"/>
<stop offset="1" stop-color="#FFA434"/>
</linearGradient>
<linearGradient id="paint12_linear_1_11" x1="83.3617" y1="125.496" x2="27.8007" y2="-12.7499" gradientUnits="userSpaceOnUse">
<stop stop-color="#FFA434"/>
<stop offset="1" stop-color="#FFA434"/>
</linearGradient>
<linearGradient id="paint13_linear_1_11" x1="83.3624" y1="125.496" x2="27.8014" y2="-12.7499" gradientUnits="userSpaceOnUse">
<stop stop-color="#FFA434"/>
<stop offset="1" stop-color="#FFA434"/>
</linearGradient>
<linearGradient id="paint14_linear_1_11" x1="106.005" y1="125.496" x2="50.4435" y2="-12.7499" gradientUnits="userSpaceOnUse">
<stop stop-color="#FFA434"/>
<stop offset="1" stop-color="#FFA434"/>
</linearGradient>
<linearGradient id="paint15_linear_1_11" x1="106.005" y1="125.496" x2="50.4441" y2="-12.7499" gradientUnits="userSpaceOnUse">
<stop stop-color="#FFA434"/>
<stop offset="1" stop-color="#FFA434"/>
</linearGradient>
<linearGradient id="paint16_linear_1_11" x1="38.076" y1="145.482" x2="-17.486" y2="7.23493" gradientUnits="userSpaceOnUse">
<stop stop-color="#FFA434"/>
<stop offset="1" stop-color="#FFA434"/>
</linearGradient>
<linearGradient id="paint17_linear_1_11" x1="38.076" y1="145.482" x2="-17.486" y2="7.23502" gradientUnits="userSpaceOnUse">
<stop stop-color="#FFA434"/>
<stop offset="1" stop-color="#FFA434"/>
</linearGradient>
<linearGradient id="paint18_linear_1_11" x1="60.7189" y1="145.482" x2="5.15693" y2="7.23516" gradientUnits="userSpaceOnUse">
<stop stop-color="#FFA434"/>
<stop offset="1" stop-color="#FFA434"/>
</linearGradient>
<linearGradient id="paint19_linear_1_11" x1="60.7193" y1="145.482" x2="5.1573" y2="7.23498" gradientUnits="userSpaceOnUse">
<stop stop-color="#FFA434"/>
<stop offset="1" stop-color="#FFA434"/>
</linearGradient>
<linearGradient id="paint20_linear_1_11" x1="83.3617" y1="145.482" x2="27.7998" y2="7.23516" gradientUnits="userSpaceOnUse">
<stop stop-color="#FFA434"/>
<stop offset="1" stop-color="#FFA434"/>
</linearGradient>
<linearGradient id="paint21_linear_1_11" x1="83.3624" y1="145.482" x2="27.8004" y2="7.23498" gradientUnits="userSpaceOnUse">
<stop stop-color="#FFA434"/>
<stop offset="1" stop-color="#FFA434"/>
</linearGradient>
<linearGradient id="paint22_linear_1_11" x1="106.005" y1="145.482" x2="50.4426" y2="7.23516" gradientUnits="userSpaceOnUse">
<stop stop-color="#FFA434"/>
<stop offset="1" stop-color="#FFA434"/>
</linearGradient>
<linearGradient id="paint23_linear_1_11" x1="106.005" y1="145.482" x2="50.4432" y2="7.23498" gradientUnits="userSpaceOnUse">
<stop stop-color="#FFA434"/>
<stop offset="1" stop-color="#FFA434"/>
</linearGradient>
<linearGradient id="paint24_linear_1_11" x1="38.076" y1="165.509" x2="-17.486" y2="27.2617" gradientUnits="userSpaceOnUse">
<stop stop-color="#FFA434"/>
<stop offset="1" stop-color="#FFA434"/>
</linearGradient>
<linearGradient id="paint25_linear_1_11" x1="38.076" y1="165.509" x2="-17.486" y2="27.2615" gradientUnits="userSpaceOnUse">
<stop stop-color="#FFA434"/>
<stop offset="1" stop-color="#FFA434"/>
</linearGradient>
<linearGradient id="paint26_linear_1_11" x1="60.7189" y1="165.509" x2="5.15693" y2="27.2617" gradientUnits="userSpaceOnUse">
<stop stop-color="#FFA434"/>
<stop offset="1" stop-color="#FFA434"/>
</linearGradient>
<linearGradient id="paint27_linear_1_11" x1="60.7193" y1="165.509" x2="5.1573" y2="27.2614" gradientUnits="userSpaceOnUse">
<stop stop-color="#FFA434"/>
<stop offset="1" stop-color="#FFA434"/>
</linearGradient>
<linearGradient id="paint28_linear_1_11" x1="83.3617" y1="165.509" x2="27.7998" y2="27.2617" gradientUnits="userSpaceOnUse">
<stop stop-color="#FFA434"/>
<stop offset="1" stop-color="#FFA434"/>
</linearGradient>
<linearGradient id="paint29_linear_1_11" x1="83.3624" y1="165.509" x2="27.8004" y2="27.2614" gradientUnits="userSpaceOnUse">
<stop stop-color="#FFA434"/>
<stop offset="1" stop-color="#FFA434"/>
</linearGradient>
<linearGradient id="paint30_linear_1_11" x1="106.005" y1="165.509" x2="50.4426" y2="27.2617" gradientUnits="userSpaceOnUse">
<stop stop-color="#FFA434"/>
<stop offset="1" stop-color="#FFA434"/>
</linearGradient>
<linearGradient id="paint31_linear_1_11" x1="106.005" y1="165.509" x2="50.4432" y2="27.2614" gradientUnits="userSpaceOnUse">
<stop stop-color="#FFA434"/>
<stop offset="1" stop-color="#FFA434"/>
</linearGradient>
</defs>
</svg>
